<svg width="14" height="14" viewBox="0 0 14 14" fill="none" xmlns="http://www.w3.org/2000/svg">
<g clip-path="url(#clip0_464_230)">
<path d="M7.34179 1.50849C7.12305 1.28968 6.82635 1.16672 6.51696 1.16666H2.33329C2.02387 1.16666 1.72713 1.28957 1.50833 1.50837C1.28954 1.72716 1.16663 2.0239 1.16663 2.33332V6.51699C1.16669 6.82638 1.28965 7.12308 1.50846 7.34182L6.58579 12.4192C6.85093 12.6826 7.20952 12.8305 7.58329 12.8305C7.95707 12.8305 8.31566 12.6826 8.58079 12.4192L12.4191 8.58082C12.6826 8.31569 12.8305 7.9571 12.8305 7.58332C12.8305 7.20955 12.6826 6.85096 12.4191 6.58582L7.34179 1.50849Z" stroke="#99A1AF" stroke-width="1.16667" stroke-linecap="round" stroke-linejoin="round"/>
<path d="M4.37504 4.66668C4.53612 4.66668 4.66671 4.53609 4.66671 4.37501C4.66671 4.21393 4.53612 4.08334 4.37504 4.08334C4.21396 4.08334 4.08337 4.21393 4.08337 4.37501C4.08337 4.53609 4.21396 4.66668 4.37504 4.66668Z" fill="#99A1AF" stroke="#99A1AF" stroke-width="1.16667" stroke-linecap="round" stroke-linejoin="round"/>
</g>
<defs>
<clipPath id="clip0_464_230">
<rect width="14" height="14" fill="white"/>
</clipPath>
</defs>
</svg>
