<svg width="16" height="16" viewBox="0 0 16 16" fill="none" xmlns="http://www.w3.org/2000/svg">
<path d="M9.99984 1.33334H3.99984C3.64622 1.33334 3.30708 1.47381 3.05703 1.72386C2.80698 1.97391 2.6665 2.31305 2.6665 2.66667V13.3333C2.6665 13.687 2.80698 14.0261 3.05703 14.2761C3.30708 14.5262 3.64622 14.6667 3.99984 14.6667H11.9998C12.3535 14.6667 12.6926 14.5262 12.9426 14.2761C13.1927 14.0261 13.3332 13.687 13.3332 13.3333V4.66667L9.99984 1.33334Z" stroke="#4A5565" stroke-width="1.33333" stroke-linecap="round" stroke-linejoin="round"/>
<path d="M9.3335 1.33334V4C9.3335 4.35362 9.47397 4.69276 9.72402 4.94281C9.97407 5.19286 10.3132 5.33334 10.6668 5.33334H13.3335" stroke="#4A5565" stroke-width="1.33333" stroke-linecap="round" stroke-linejoin="round"/>
<path d="M6.66683 9.33333C7.40321 9.33333 8.00016 8.73638 8.00016 8C8.00016 7.26362 7.40321 6.66666 6.66683 6.66666C5.93045 6.66666 5.3335 7.26362 5.3335 8C5.3335 8.73638 5.93045 9.33333 6.66683 9.33333Z" stroke="#4A5565" stroke-width="1.33333" stroke-linecap="round" stroke-linejoin="round"/>
<path d="M13.3333 11.3333L12.4693 10.4693C12.168 10.1681 11.7594 9.99884 11.3333 9.99884C10.9073 9.99884 10.4986 10.1681 10.1973 10.4693L6 14.6667" stroke="#4A5565" stroke-width="1.33333" stroke-linecap="round" stroke-linejoin="round"/>
</svg>
