<?xml version="1.0" standalone="no"?> <!DOCTYPE svg PUBLIC "-//W3C//DTD SVG 20010904//EN" "http://www.w3.org/TR/2001/REC-SVG-20010904/DTD/svg10.dtd"> <svg version="1.0" xmlns="http://www.w3.org/2000/svg" width="600.000000pt" height="600.000000pt" viewBox="0 0 600.000000 600.000000" preserveAspectRatio="xMidYMid meet"> <g transform="translate(0.000000,600.000000) scale(0.100000,-0.100000)" fill="#ffffff" stroke="none"> <path d="M1885 4540 c-190 -39 -396 -112 -427 -152 -10 -13 -18 -41 -18 -64 0 -34 7 -48 48 -95 131 -149 258 -331 327 -469 159 -319 307 -475 504 -534 30 -9 75 -16 100 -16 51 0 161 28 161 42 0 14 -66 142 -107 206 -46 73 -231 257 -303 301 -75 46 -95 75 -95 133 0 40 5 53 31 79 45 45 106 51 162 15 22 -14 48 -41 57 -60 11 -22 39 -49 82 -77 79 -51 190 -153 248 -229 59 -78 168 -282 198 -370 69 -205 90 -356 90 -630 0 -211 -16 -394 -35 -406 -6 -4 -43 -15 -84 -25 -169 -42 -318 -126 -453 -254 -127 -121 -243 -310 -245 -398 -1 -42 3 -52 27 -73 l28 -24 893 0 892 0 27 28 c41 43 36 87 -20 198 -91 182 -253 346 -432 438 -108 55 -195 83 -319 105 l-97 16 1 40 c1 22 6 133 11 246 9 186 13 212 35 260 51 110 137 227 262 357 59 61 75 72 103 72 71 0 123 -52 123 -123 0 -37 -33 -89 -95 -147 -20 -19 -46 -47 -57 -63 l-20 -27 58 -27 c109 -49 240 -40 371 26 128 64 219 154 293 288 53 96 175 221 256 261 69 35 94 66 94 118 0 32 -8 44 -66 100 -78 75 -198 140 -330 180 -81 24 -104 27 -249 27 -155 0 -163 -1 -255 -32 -107 -37 -215 -103 -258 -159 -61 -79 -101 -184 -103 -271 -1 -61 -9 -84 -39 -118 -14 -16 -51 -59 -84 -96 -36 -42 -62 -65 -68 -59 -5 5 -15 38 -23 74 -19 94 -67 232 -118 340 l-44 94 35 78 c18 43 43 123 55 178 19 89 19 107 8 176 -6 42 -26 105 -42 140 -83 172 -329 329 -607 387 -105 22 -369 19 -487 -5z"/> </g> </svg>