<svg width="14" height="14" viewBox="0 0 14 14" fill="none" xmlns="http://www.w3.org/2000/svg">
<g clip-path="url(#clip0_464_227)">
<path d="M11.6667 5.83332C11.6667 8.74591 8.43562 11.7792 7.35062 12.7161C7.24955 12.7921 7.12651 12.8332 7.00004 12.8332C6.87357 12.8332 6.75053 12.7921 6.64946 12.7161C5.56446 11.7792 2.33337 8.74591 2.33337 5.83332C2.33337 4.59565 2.82504 3.40866 3.70021 2.53349C4.57538 1.65832 5.76236 1.16666 7.00004 1.16666C8.23772 1.16666 9.4247 1.65832 10.2999 2.53349C11.175 3.40866 11.6667 4.59565 11.6667 5.83332Z" stroke="#99A1AF" stroke-width="1.16667" stroke-linecap="round" stroke-linejoin="round"/>
<path d="M7 7.58334C7.9665 7.58334 8.75 6.79984 8.75 5.83334C8.75 4.86685 7.9665 4.08334 7 4.08334C6.0335 4.08334 5.25 4.86685 5.25 5.83334C5.25 6.79984 6.0335 7.58334 7 7.58334Z" stroke="#99A1AF" stroke-width="1.16667" stroke-linecap="round" stroke-linejoin="round"/>
</g>
<defs>
<clipPath id="clip0_464_227">
<rect width="14" height="14" fill="white"/>
</clipPath>
</defs>
</svg>
